<?xml version="1.0" standalone="no"?>
<!DOCTYPE svg PUBLIC "-//W3C//DTD SVG 20010904//EN"
 "http://www.w3.org/TR/2001/REC-SVG-20010904/DTD/svg10.dtd">
<svg version="1.0" xmlns="http://www.w3.org/2000/svg"
 width="512.000000pt" height="512.000000pt" viewBox="0 0 512.000000 512.000000"
 preserveAspectRatio="xMidYMid meet">
<metadata>
Created by potrace 1.14, written by Peter Selinger 2001-2017
</metadata>
<g transform="translate(0.000000,512.000000) scale(0.100000,-0.100000)"
fill="#000000" stroke="none">
<path d="M2078 4727 c-83 -27 -157 -100 -186 -186 -9 -25 -11 -182 -10 -575 3
-538 3 -541 25 -581 56 -101 162 -166 261 -160 17 1 32 -2 32 -7 0 -19 -59
-124 -81 -145 -65 -59 -262 -131 -409 -149 -141 -17 -287 -2 -381 39 -121 53
-243 192 -304 344 -30 76 -46 98 -88 120 -27 13 -31 13 -68 -11 -48 -32 -68
-69 -63 -121 3 -42 4 -47 27 -140 29 -118 30 -131 5 -152 -37 -29 -66 -76 -77
-124 -14 -58 -20 -265 -9 -306 14 -52 60 -83 123 -83 30 0 64 4 78 9 27 11
101 20 267 36 36 3 85 8 110 10 71 7 150 14 215 20 33 3 76 7 95 10 19 2 62 7
95 10 59 6 108 11 194 20 23 3 52 10 62 16 10 5 19 7 19 5 0 -3 10 -2 23 3 13
5 47 16 76 25 49 14 52 14 47 -2 -3 -9 -8 -32 -11 -50 -3 -18 -12 -65 -21
-105 -22 -98 -25 -265 -7 -352 21 -101 82 -222 150 -295 57 -62 149 -131 199
-150 28 -11 100 -64 122 -90 77 -90 118 -241 117 -430 0 -74 -3 -89 -23 -115
-33 -42 -66 -61 -157 -91 -95 -32 -390 -179 -525 -262 -106 -65 -128 -91 -161
-190 -12 -37 -24 -72 -26 -78 -3 -7 25 -21 69 -35 102 -32 97 -31 159 -34 45
-3 115 14 385 90 181 52 403 117 494 145 91 29 185 53 210 54 48 2 56 1 336
-63 175 -40 390 -82 484 -96 25 -4 75 -12 112 -19 76 -14 172 -13 221 3 47 16
94 65 101 106 18 94 -109 222 -269 271 -5 2 -44 15 -85 30 -41 14 -82 27 -90
29 -8 2 -51 13 -95 24 -44 10 -102 22 -128 26 -240 30 -337 96 -426 288 -76
161 -106 301 -87 405 3 17 8 46 11 63 3 18 10 39 14 48 5 9 11 36 14 61 4 25
9 64 12 87 9 65 40 148 77 200 54 79 220 234 278 260 83 36 99 43 107 43 16 0
104 92 115 119 45 119 -15 234 -211 401 -84 71 -88 75 -156 140 -60 58 -72 75
-85 121 -7 24 -6 29 9 29 27 0 105 54 135 93 61 80 61 81 60 663 -1 516 -2
530 -22 575 -26 56 -80 112 -135 142 l-42 22 -635 2 c-467 1 -645 -1 -672 -10z
m560 -439 c48 -14 64 -54 58 -136 -12 -156 -78 -304 -191 -430 -41 -47 -73
-61 -111 -51 -41 11 -64 38 -69 82 -4 30 1 43 28 74 17 21 34 40 37 43 11 10
70 104 70 111 0 4 -18 6 -40 6 -31 -1 -47 5 -68 26 -25 26 -27 32 -26 127 0
90 2 102 23 124 13 14 33 27 45 29 46 7 213 4 244 -5z m508 2 c55 -21 69 -85
47 -205 -23 -128 -102 -281 -191 -372 -36 -37 -48 -43 -82 -43 -86 0 -121 94
-59 161 35 39 109 148 109 161 0 5 -8 5 -17 1 -40 -19 -88 -1 -109 40 -19 35
-20 186 -3 219 6 11 24 25 40 32 35 15 231 19 265 6z"/>
</g>
</svg>
