<?xml version="1.0" encoding="utf-8"?>
<!-- Generator: Adobe Illustrator 22.0.1, SVG Export Plug-In . SVG Version: 6.00 Build 0)  -->
<svg version="1.1" id="Layer_1" xmlns="http://www.w3.org/2000/svg" xmlns:xlink="http://www.w3.org/1999/xlink" x="0px" y="0px"
	 viewBox="0 0 59.2 71" style="enable-background:new 0 0 59.2 71;" xml:space="preserve">
<path d="M56.3,63.6c-2.9-1.2-6-2.2-9-2.5c-3.1-0.4-4.9-1.9-6-4.5c-0.6-1.3-1-2.6-1.4-4c-0.2-0.9-0.2-1.7,0-2.5
	c0-0.7,0.2-1.5,0.5-2.1c0,0,0,0,0,0c0.1-0.4,0.1-0.9,0.2-1.3c0-0.5,0.1-1.1,0.2-1.6c0.5-2.1,1.7-3.6,3.2-4.8
	c0.9-1.1,1.9-1.9,3.2-2.3c0.3-0.1,0.6-0.3,1-0.3c2.5-1.7,2.8-3.9,0.5-6.4c-1.5-1.6-3.4-3-5-4.5c-0.5-0.5-1.3-1.4-1.1-2l0-0.1
	c-0.3,0-0.5,0-0.8,0.1c-0.4,0-0.7,0-1.1,0c-0.2,0-0.3,0-0.5,0c-0.3,0-0.6,0-0.9,0h2.1c2.5,0,4.6-2.1,4.6-4.6V4.6
	c0-2.5-2.1-4.6-4.6-4.6H23.1c-2.5,0-4.6,2.1-4.6,4.6V20c0,2.5,2.1,4.6,4.6,4.6h0.7c-0.5,0.9-0.8,2.1-1.6,2.7c-2.8,2-10,3.8-14,0.8
	c-2-1.5-3.1-3.3-3.9-5.6c-0.2-0.6-1.3-1.5-1.7-1.4C1.9,21.4,1,22.3,1,23c-0.1,1.1,0.4,2.2,0.6,3.3c0.1,0.6,0.4,1.6,0.2,1.8
	c-2.2,1.5-1.6,3.6-1.8,5.7c-0.2,2.4,1,3.3,3.4,2.6c0.7-0.2,1.4-0.3,2.2-0.4c4.5-0.4,8.9-0.8,13.4-1.3c1.2-0.1,2.5-0.6,4.1-1.1
	c-0.3,1.6-0.5,2.6-0.7,3.6c-0.9,5.3,1.2,9.9,5.7,12.1c3.7,1.8,3.7,5.4,3.9,8.5c0.2,3-2.8,3-4.7,3.9c-2.8,1.4-5.6,2.7-8.2,4.5
	c-0.9,0.6-1.2,2.4-1.7,3.6c1.1,0.3,2.2,0.7,3.4,1c0.5,0.1,1.2,0,1.7-0.1c5-1.4,10-2.7,14.9-4.3c1.5-0.5,2.6-0.3,4,0.1
	c4.4,1.1,8.9,2,13.4,2.7c1.8,0.3,4.2,0,4.5-2.1C59.3,66.1,57.6,64.1,56.3,63.6z M34,11.6c-0.1-0.2-0.2-0.5-0.2-0.8V8.7
	c0-0.8,0.7-1.5,1.5-1.5h3.1c0.8,0,1.5,0.7,1.5,1.5c0,4.4-2.6,7.4-3.5,8.3c-0.6,0.6-1.6,0.7-2.2,0.1c-0.6-0.6-0.7-1.6-0.1-2.2
	c0,0,0.1-0.1,0.1-0.1c0.4-0.4,1.3-1.4,1.9-2.7C35.4,12.5,34.5,12.3,34,11.6z M25.8,11.6c-0.1-0.2-0.2-0.5-0.2-0.8V8.7
	c0-0.8,0.7-1.5,1.5-1.5h3.1c0.8,0,1.5,0.7,1.5,1.5c0,4.4-2.6,7.4-3.5,8.3c-0.6,0.6-1.6,0.7-2.2,0.1c-0.6-0.6-0.7-1.6-0.1-2.2
	c0,0,0.1-0.1,0.1-0.1c0.4-0.4,1.3-1.4,1.9-2.7C27.2,12.5,26.3,12.3,25.8,11.6z"/>
</svg>
